<svg xmlns="http://www.w3.org/2000/svg" xmlns:xlink="http://www.w3.org/1999/xlink" version="1.1" x="0px" y="0px" viewBox="0 0 24 30" style="enable-background:new 0 0 24 24;" xml:space="preserve"><path d="M20,4.9H4c-1.434,0-2.6,1.167-2.6,2.6v9c0,1.434,1.166,2.6,2.6,2.6h16c1.434,0,2.6-1.167,2.6-2.6v-9  C22.6,6.066,21.434,4.9,20,4.9z M21.4,16.5c0,0.772-0.629,1.4-1.4,1.4H4c-0.771,0-1.4-0.628-1.4-1.4v-9c0-0.772,0.629-1.4,1.4-1.4  h16c0.771,0,1.4,0.628,1.4,1.4V16.5z M13.501,8.4c-0.518,0-1.03,0.12-1.505,0.336C11.539,8.525,11.035,8.4,10.499,8.4  c-1.985,0-3.6,1.615-3.6,3.6s1.614,3.6,3.6,3.6c0.536,0,1.04-0.125,1.497-0.336c0.474,0.217,0.987,0.336,1.505,0.336  c1.985,0,3.6-1.615,3.6-3.6S15.486,8.4,13.501,8.4z M10.499,14.4c-1.323,0-2.4-1.077-2.4-2.4s1.077-2.4,2.4-2.4s2.4,1.077,2.4,2.4  S11.822,14.4,10.499,14.4z M13.501,14.4c-0.103,0-0.203-0.027-0.305-0.04c0.555-0.634,0.903-1.453,0.903-2.36  s-0.348-1.726-0.903-2.36c0.102-0.013,0.202-0.04,0.305-0.04c1.323,0,2.4,1.077,2.4,2.4S14.824,14.4,13.501,14.4z"/><text x="0" y="39" fill="#000000" font-size="5px" font-weight="bold" font-family="'Helvetica Neue', Helvetica, Arial-Unicode, Arial, Sans-serif">Created by Hare Krishna</text><text x="0" y="44" fill="#000000" font-size="5px" font-weight="bold" font-family="'Helvetica Neue', Helvetica, Arial-Unicode, Arial, Sans-serif">from the Noun Project</text></svg>